<?xml version="1.0" encoding="utf-8"?>
<!-- Generator: Adobe Illustrator 26.0.0, SVG Export Plug-In . SVG Version: 6.00 Build 0)  -->
<svg version="1.1" xmlns="http://www.w3.org/2000/svg" xmlns:xlink="http://www.w3.org/1999/xlink" x="0px" y="0px"
	 viewBox="0 0 30.75 214.56" style="enable-background:new 0 0 30.75 214.56;" xml:space="preserve">
<style type="text/css">
	.st0{fill:#808080;}
	.st1{fill:#FFFFFF;}
</style>
<g id="Layer_1">
</g>
<g id="Layer_2">
	<g>
		
			<rect x="18.53" y="7.24" transform="matrix(-1.836970e-16 1 -1 -1.836970e-16 32.3225 -11.364)" class="st0" width="6.64" height="6.47"/>
		
			<rect x="18.53" y="200.85" transform="matrix(-1.836970e-16 1 -1 -1.836970e-16 225.9258 182.2393)" class="st0" width="6.64" height="6.47"/>
		
			<rect x="-65.75" y="104.13" transform="matrix(-1.836970e-16 1 -1 -1.836970e-16 129.2071 85.5206)" class="st0" width="175.19" height="6.47"/>
		
			<rect x="12.06" y="7.24" transform="matrix(-1.836970e-16 1 -1 -1.836970e-16 25.8525 -4.894)" class="st1" width="6.64" height="6.47"/>
		
			<rect x="12.06" y="200.85" transform="matrix(-1.836970e-16 1 -1 -1.836970e-16 219.4558 188.7093)" class="st1" width="6.64" height="6.47"/>
		
			<rect x="-72.22" y="104.13" transform="matrix(-1.836970e-16 1 -1 -1.836970e-16 122.7371 91.9906)" class="st1" width="175.19" height="6.47"/>
		<rect x="5.59" y="7.24" transform="matrix(-1.836970e-16 1 -1 -1.836970e-16 19.3825 1.576)" width="6.64" height="6.47"/>
		<rect x="5.59" y="200.85" transform="matrix(-1.836970e-16 1 -1 -1.836970e-16 212.9857 195.1793)" width="6.64" height="6.47"/>
		
			<rect x="-78.69" y="104.13" transform="matrix(-1.836970e-16 1 -1 -1.836970e-16 116.267 98.4606)" width="175.19" height="6.47"/>
	</g>
</g>
</svg>
